<svg xmlns="http://www.w3.org/2000/svg" width="100" height="38" viewBox="0 0 100 38" fill="none"><path fill-rule="evenodd" clip-rule="evenodd" d="M21.5906 0H5.68155V3.35294H21.5906V0ZM5.68155 10.0588H21.5906V34.6471H5.68155V10.0588ZM2.27246 38V6.70588H24.9997V38H2.27246Z" fill="#2B2B2B"></path><path d="M43.6997 32.4117L36.7451 13.6889H40.8088L46.0178 28.6296L51.2269 13.6889H55.3178L48.336 32.4117H43.6997Z" fill="#2B2B2B"></path><path d="M58.8811 32.4117V13.6889H62.7265V32.4117H58.8811Z" fill="#2B2B2B"></path><path d="M80.4451 32.4117L79.2178 28.8978H71.7997L70.5724 32.4117H66.5088L73.2451 13.6353H77.7997L84.5088 32.4117H80.4451ZM72.8088 26.0009H78.236L75.5088 18.1953L72.8088 26.0009Z" fill="#2B2B2B"></path><path d="M88.32 13.6889H92.1654V29.5416H98.2745V32.4117H88.32V13.6889Z" fill="#2B2B2B"></path></svg>